<svg xmlns="http://www.w3.org/2000/svg" xmlns:xlink="http://www.w3.org/1999/xlink" contentStyleType="text/css" data-diagram-type="DESCRIPTION" height="859px" preserveAspectRatio="none" style="width:1399px;height:859px;background:#FFFFFF;" version="1.1" viewBox="0 0 1399 859" width="1399px" zoomAndPan="magnify"><title>&#1057;&#1077;&#1088;&#1074;&#1080;&#1089; &#1087;&#1086;&#1076;&#1073;&#1086;&#1088;&#1072; &#1086;&#1076;&#1077;&#1078;&#1076;&#1099; &#183; &#1084;&#1086;&#1085;&#1086;&#1083;&#1080;&#1090;</title><defs/><g><g class="title" data-source-line="15"><text fill="#000000" font-family="sans-serif" font-size="14" font-weight="bold" lengthAdjust="spacing" textLength="265.8701" x="561.8149" y="31.5352">&#1057;&#1077;&#1088;&#1074;&#1080;&#1089; &#1087;&#1086;&#1076;&#1073;&#1086;&#1088;&#1072; &#1086;&#1076;&#1077;&#1078;&#1076;&#1099; &#183; &#1084;&#1086;&#1085;&#1086;&#1083;&#1080;&#1090;</text></g><!--cluster Docker Compose--><g class="cluster" data-entity="Docker Compose" data-source-line="19" data-uid="ent0003" id="cluster_Docker Compose"><rect fill="none" height="793" rx="2.5" ry="2.5" style="stroke:#181818;stroke-width:1;" width="907" x="249.5" y="57.4883"/><text fill="#000000" font-family="sans-serif" font-size="15" font-weight="bold" lengthAdjust="spacing" textLength="131.1035" x="637.4482" y="81.9902">Docker Compose</text></g><!--cluster Kotlin / Spring Boot ? ???? ???????--><g class="cluster" data-entity="Kotlin . Spring Boot . .... ......." data-source-line="20" data-uid="ent0004" id="cluster_Kotlin . Spring Boot . .... ......."><polygon fill="none" points="257.5,111.4883,267.5,101.4883,1148.5,101.4883,1148.5,664.4883,1138.5,674.4883,257.5,674.4883,257.5,111.4883" style="stroke:#181818;stroke-width:1;"/><line style="stroke:#181818;stroke-width:1;" x1="1138.5" x2="1148.5" y1="111.4883" y2="101.4883"/><line style="stroke:#181818;stroke-width:1;" x1="257.5" x2="1138.5" y1="111.4883" y2="111.4883"/><line style="stroke:#181818;stroke-width:1;" x1="1138.5" x2="1138.5" y1="111.4883" y2="674.4883"/><text fill="#000000" font-family="sans-serif" font-size="15" font-weight="bold" lengthAdjust="spacing" textLength="283.1616" x="557.4192" y="136.9902">Kotlin / Spring Boot &#183; &#1086;&#1076;&#1080;&#1085; &#1087;&#1088;&#1086;&#1094;&#1077;&#1089;&#1089;</text></g><!--entity client--><g class="entity" data-entity="client" data-source-line="17" data-uid="ent0002" id="entity_client"><rect fill="#FFF5DF" height="71.332" rx="2.5" ry="2.5" style="stroke:#6485AD;stroke-width:0.5;" width="235.0503" x="6" y="150.4883"/><text fill="#000000" font-family="sans-serif" font-size="15" lengthAdjust="spacing" textLength="177.5024" x="24" y="182.9902">USER / STYLIST / ADMIN</text><text fill="#000000" font-family="sans-serif" font-size="15" lengthAdjust="spacing" textLength="199.0503" x="24" y="200.6563">&#1050;&#1083;&#1080;&#1077;&#1085;&#1090; REST API / Swagger</text></g><!--entity s3--><g class="entity" data-entity="s3" data-source-line="45" data-uid="ent0025" id="entity_s3"><path d="M1173.6168,598.4998 C1177.7479,589.2228 1185.4355,589.7255 1190.2979,597.7967 C1194.6719,590.1268 1199.3516,590.0742 1204.2021,597.3535 C1208.5558,590.0119 1214.0499,590.0191 1218.1902,597.5542 C1222.007,588.8644 1228.0991,589.6893 1233.6211,595.7731 C1239.7046,589.0177 1245.0243,589.2975 1249.5871,597.4065 C1252.4842,589.3663 1257.3423,589.6926 1263.0283,594.4854 C1268.6552,588.7413 1273.3431,587.3741 1278.0199,595.5114 C1283.1937,588.763 1288.3601,590.3613 1292.5652,596.5967 C1298,588.3812 1305.2799,588.1905 1309.9096,597.3983 C1313.5517,591.2257 1318.7481,590.7623 1323.0234,596.7133 C1328.1179,589.1758 1334.0906,588.9012 1339.5194,596.3452 C1344.5605,590.4079 1350.3733,590.3209 1353.8954,597.9544 C1360.2372,589.8887 1365.305,591.8851 1370.0344,599.6031 C1374.3455,594.0473 1379.5513,594.2211 1382.8487,600.684 C1391.0017,604.9617 1391.2605,612.0962 1383.6582,617.1486 C1390.6919,622.0571 1392.085,628.3542 1383.9026,633.4902 C1392.4508,637.5626 1392.7494,645.4303 1384.2357,649.8501 C1390.9109,655.526 1390.9202,660.4065 1382.5534,664.3353 C1380.2851,671.5885 1374.1989,673.4098 1368.5825,668.0413 C1364.1317,673.5709 1359.3682,675.1623 1354.8575,668.1065 C1349.5737,676.7705 1344.486,676.8585 1338.3351,668.9722 C1334.9547,677.7984 1329.2241,678.7768 1322.5811,672.3396 C1319.2419,678.6161 1314.181,680.7015 1309.1253,674.1385 C1303.5951,682.0997 1298.1519,681.694 1293.0401,673.7162 C1290.2524,681.164 1284.3963,680.9274 1279.8677,675.4968 C1275.7485,683.1022 1268.687,682.0196 1264.8289,675.224 C1259.9805,683.2283 1252.4964,681.5252 1249.0334,673.8302 C1243.4012,681.7249 1236.8289,680.3217 1232.5663,672.4038 C1227.036,678.4306 1221.0999,676.3787 1219.0447,668.9195 C1213.5529,675.6104 1207.7309,674.4036 1203.7142,667.2823 C1198.3501,672.7399 1193.8799,671.9961 1189.6654,665.8862 C1184.3454,673.3912 1179.4541,671.8961 1174.3628,665.632 C1164.6817,664.5634 1161.5827,658.2382 1166.7924,649.9714 C1155.5489,645.9565 1156.15,639.0802 1162.7456,631.2161 C1156.5655,622.8579 1158.1149,617.676 1168.3997,615.091 C1161.0174,608.0057 1163.6594,600.1326 1173.6168,598.4998" fill="#E8F5EF" style="stroke:#181818;stroke-width:0.5;"/><text fill="#000000" font-family="sans-serif" font-size="15" lengthAdjust="spacing" textLength="165.769" x="1187.5" y="627.9902">Yandex Object Storage</text><text fill="#000000" font-family="sans-serif" font-size="15" lengthAdjust="spacing" textLength="179.7729" x="1187.5" y="645.6563">&#1055;&#1088;&#1080;&#1074;&#1072;&#1090;&#1085;&#1099;&#1077; &#1092;&#1086;&#1090;&#1086;&#1075;&#1088;&#1072;&#1092;&#1080;&#1080;</text></g><!--entity openai--><g class="entity" data-entity="openai" data-source-line="46" data-uid="ent0026" id="entity_openai"><path d="M1172.8351,446.5014 C1175.9269,440.9334 1180.9585,440.4943 1184.6059,445.9058 C1187.3817,440.4087 1192.6954,440.3196 1196.3373,444.8974 C1199.2073,439.1605 1202.4204,439.7777 1206.5034,443.6085 C1209.2368,438.2359 1215.2436,437.1663 1218.9607,442.4594 C1221.6044,436.1691 1227.1295,437.2505 1230.3077,441.9053 C1233.9492,436.3564 1238.2104,438.1565 1240.9547,442.8389 C1244.1843,437.0028 1248.4025,436.2371 1252.6491,441.7952 C1255.1666,437.1105 1260.2116,436.578 1263.0349,441.4633 C1267.0281,435.9881 1271.8785,435.7368 1275.1433,442.2021 C1279.0621,436.6508 1283.5433,437.4719 1286.489,443.1825 C1289.8284,436.565 1294.6238,436.8387 1298.4384,442.7284 C1302.0413,438.0912 1306.8386,438.312 1309.6988,443.5733 C1313.2248,439.1256 1317.8011,439.8791 1319.9847,445.0142 C1324.0918,439.7726 1328.1755,439.7723 1331.6033,445.7197 C1337.2099,447.1831 1340.0455,451.0161 1335.9741,456.4294 C1341.5583,458.6632 1344.0742,462.7529 1338.9339,467.7827 C1344.6046,470.275 1345.521,473.9741 1341.5172,478.7461 C1345.1989,483.674 1344.5132,487.9222 1337.8491,489.2303 C1343.2855,493.4888 1340.8698,498.8861 1335.2629,500.6417 C1338.2607,504.965 1336.1776,509.7933 1330.9057,510.4386 C1328.5518,515.6377 1325.1349,517.5757 1320.5502,512.7408 C1317.6856,517.3175 1313.5641,517.9111 1310.1791,513.3302 C1306.9739,519.3153 1303.0706,519.8017 1298.8401,514.3463 C1296.0437,521.0577 1291.8723,521.2172 1287.057,516.4119 C1284.0673,521.5028 1280.0548,521.7185 1276.0374,517.6478 C1272.6765,524.257 1268.7498,523.1918 1264.3031,518.8067 C1261.419,525.6212 1256.4891,525.2699 1252.4523,519.9306 C1248.4198,523.9625 1244.6579,522.9232 1242.2686,518.0512 C1238.4455,522.8476 1232.0625,522.4073 1229.5544,516.4905 C1226.569,520.721 1221.8686,521.3569 1219.554,515.8048 C1215.6762,521.7513 1210.7424,521.4135 1207.3752,515.2896 C1204.1786,519.4034 1199.1143,519.3129 1197.1774,513.936 C1193.3706,519.0321 1188.3814,519.4363 1185.4005,513.0862 C1180.1485,518.771 1176.2993,517.102 1173.0612,510.9813 C1165.9497,506.7112 1165.2239,498.927 1172.6848,494.3276 C1164.2792,490.5007 1162.0509,483.1995 1170.6531,477.3386 C1164.038,471.4359 1162.8462,465.6797 1172.0063,461.0909 C1164.6389,456.9613 1166.6289,449.8599 1172.8351,446.5014" fill="#F2EDFB" style="stroke:#181818;stroke-width:0.5;"/><text fill="#000000" font-family="sans-serif" font-size="15" lengthAdjust="spacing" textLength="81.1377" x="1187.5" y="473.9902">OpenAI API</text><text fill="#000000" font-family="sans-serif" font-size="15" lengthAdjust="spacing" textLength="128.2544" x="1187.5" y="491.6563">&#1042;&#1085;&#1077;&#1096;&#1085;&#1080;&#1081; &#1087;&#1086;&#1076;&#1073;&#1086;&#1088;</text></g><!--entity db--><g class="entity" data-entity="db" data-source-line="41" data-uid="ent0023" id="entity_db"><path d="M474.5,754.4883 C474.5,744.4883 588.2715,744.4883 588.2715,744.4883 C588.2715,744.4883 702.043,744.4883 702.043,754.4883 L702.043,832.4863 C702.043,842.4863 588.2715,842.4863 588.2715,842.4863 C588.2715,842.4863 474.5,842.4863 474.5,832.4863 L474.5,754.4883" fill="#E8F5EF" style="stroke:#181818;stroke-width:0.5;"/><path d="M474.5,754.4883 C474.5,764.4883 588.2715,764.4883 588.2715,764.4883 C588.2715,764.4883 702.043,764.4883 702.043,754.4883" fill="none" style="stroke:#181818;stroke-width:0.5;"/><text fill="#000000" font-family="sans-serif" font-size="15" lengthAdjust="spacing" textLength="82.3389" x="492.5" y="790.9902">PostgreSQL</text><text fill="#000000" font-family="sans-serif" font-size="15" lengthAdjust="spacing" textLength="191.543" x="492.5" y="808.6563">&#1044;&#1072;&#1085;&#1085;&#1099;&#1077; &#183; &#1080;&#1089;&#1090;&#1086;&#1088;&#1080;&#1103; &#1086;&#1094;&#1077;&#1085;&#1086;&#1082;</text><text fill="#000000" font-family="sans-serif" font-size="15" lengthAdjust="spacing" textLength="176.4038" x="492.5" y="826.3223">&#1056;&#1072;&#1079;&#1088;&#1077;&#1096;&#1077;&#1085;&#1080;&#1103; &#183; S3-&#1082;&#1083;&#1102;&#1095;&#1080;</text></g><!--entity api--><g class="entity" data-entity="api" data-source-line="21" data-uid="ent0005" id="entity_api"><rect fill="#F0F6FC" height="71.332" rx="2.5" ry="2.5" style="stroke:#6485AD;stroke-width:0.5;" width="234.6914" x="644" y="150.4883"/><text fill="#000000" font-family="sans-serif" font-size="15" lengthAdjust="spacing" textLength="141.3647" x="662" y="182.9902">REST API / Swagger</text><text fill="#000000" font-family="sans-serif" font-size="15" lengthAdjust="spacing" textLength="198.6914" x="662" y="200.6563">DTO &#183; &#1074;&#1072;&#1083;&#1080;&#1076;&#1072;&#1094;&#1080;&#1103; &#183; &#1086;&#1096;&#1080;&#1073;&#1082;&#1080;</text></g><!--entity identity--><g class="entity" data-entity="identity" data-source-line="22" data-uid="ent0006" id="entity_identity"><rect fill="#F0F6FC" height="71.332" rx="2.5" ry="2.5" style="stroke:#6485AD;stroke-width:0.5;" width="268.8296" x="266" y="347.4883"/><text fill="#000000" font-family="sans-serif" font-size="15" lengthAdjust="spacing" textLength="222.29" x="284" y="379.9902">&#1055;&#1086;&#1083;&#1100;&#1079;&#1086;&#1074;&#1072;&#1090;&#1077;&#1083;&#1080; &#1080; &#1073;&#1077;&#1079;&#1086;&#1087;&#1072;&#1089;&#1085;&#1086;&#1089;&#1090;&#1100;</text><text fill="#000000" font-family="sans-serif" font-size="15" lengthAdjust="spacing" textLength="232.8296" x="284" y="397.6563">&#1042;&#1093;&#1086;&#1076; &#183; JWT &#183; &#1088;&#1086;&#1083;&#1080; &#183; &#1073;&#1083;&#1086;&#1082;&#1080;&#1088;&#1086;&#1074;&#1082;&#1080;</text></g><!--entity wardrobe--><g class="entity" data-entity="wardrobe" data-source-line="23" data-uid="ent0007" id="entity_wardrobe"><rect fill="#F0F6FC" height="71.332" rx="2.5" ry="2.5" style="stroke:#6485AD;stroke-width:0.5;" width="261.9741" x="878.5" y="441.4883"/><text fill="#000000" font-family="sans-serif" font-size="15" lengthAdjust="spacing" textLength="183.2739" x="896.5" y="473.9902">&#1043;&#1072;&#1088;&#1076;&#1077;&#1088;&#1086;&#1073; &#1080; &#1092;&#1086;&#1090;&#1086;&#1075;&#1088;&#1072;&#1092;&#1080;&#1080;</text><text fill="#000000" font-family="sans-serif" font-size="15" lengthAdjust="spacing" textLength="225.9741" x="896.5" y="491.6563">&#1042;&#1077;&#1097;&#1080; &#183; &#1093;&#1072;&#1088;&#1072;&#1082;&#1090;&#1077;&#1088;&#1080;&#1089;&#1090;&#1080;&#1082;&#1080; &#183; &#1092;&#1086;&#1090;&#1086;</text></g><!--entity outfits--><g class="entity" data-entity="outfits" data-source-line="24" data-uid="ent0008" id="entity_outfits"><rect fill="#F0F6FC" height="71.332" rx="2.5" ry="2.5" style="stroke:#6485AD;stroke-width:0.5;" width="295.8047" x="564.5" y="441.4883"/><text fill="#000000" font-family="sans-serif" font-size="15" lengthAdjust="spacing" textLength="56.3745" x="582.5" y="473.9902">&#1054;&#1073;&#1088;&#1072;&#1079;&#1099;</text><text fill="#000000" font-family="sans-serif" font-size="15" lengthAdjust="spacing" textLength="259.8047" x="582.5" y="491.6563">&#1057;&#1086;&#1089;&#1090;&#1072;&#1074; &#183; &#1072;&#1074;&#1090;&#1086;&#1088; &#183; &#1074;&#1083;&#1072;&#1076;&#1077;&#1083;&#1077;&#1094; &#183; &#1087;&#1086;&#1075;&#1086;&#1076;&#1072;</text></g><!--entity ratings--><g class="entity" data-entity="ratings" data-source-line="25" data-uid="ent0009" id="entity_ratings"><rect fill="#F0F6FC" height="71.332" rx="2.5" ry="2.5" style="stroke:#6485AD;stroke-width:0.5;" width="280.4678" x="540.5" y="347.4883"/><text fill="#000000" font-family="sans-serif" font-size="15" lengthAdjust="spacing" textLength="126.6943" x="558.5" y="379.9902">&#1044;&#1086;&#1089;&#1090;&#1091;&#1087; &#1080; &#1086;&#1094;&#1077;&#1085;&#1082;&#1080;</text><text fill="#000000" font-family="sans-serif" font-size="15" lengthAdjust="spacing" textLength="244.4678" x="558.5" y="397.6563">&#1056;&#1072;&#1079;&#1088;&#1077;&#1096;&#1077;&#1085;&#1080;&#1103; &#183; &#1080;&#1089;&#1090;&#1086;&#1088;&#1080;&#1103; &#183; &#1089;&#1095;&#1105;&#1090;&#1095;&#1080;&#1082;&#1080;</text></g><!--entity recommendations--><g class="entity" data-entity="recommendations" data-source-line="26" data-uid="ent0010" id="entity_recommendations"><rect fill="#F0F6FC" height="71.332" rx="2.5" ry="2.5" style="stroke:#6485AD;stroke-width:0.5;" width="311.4126" x="829" y="258.4883"/><text fill="#000000" font-family="sans-serif" font-size="15" lengthAdjust="spacing" textLength="79.6362" x="847" y="290.9902">AI-&#1087;&#1086;&#1076;&#1073;&#1086;&#1088;</text><text fill="#000000" font-family="sans-serif" font-size="15" lengthAdjust="spacing" textLength="275.4126" x="847" y="308.6563">&#1042;&#1099;&#1079;&#1086;&#1074; &#1084;&#1086;&#1076;&#1077;&#1083;&#1080; &#183; &#1087;&#1088;&#1086;&#1074;&#1077;&#1088;&#1082;&#1072; &#1088;&#1077;&#1079;&#1091;&#1083;&#1100;&#1090;&#1072;&#1090;&#1072;</text></g><!--entity persistence--><g class="entity" data-entity="persistence" data-source-line="27" data-uid="ent0011" id="entity_persistence"><rect fill="#E8F5EF" height="71.332" rx="2.5" ry="2.5" style="stroke:#6485AD;stroke-width:0.5;" width="222.1523" x="477.5" y="595.4883"/><text fill="#000000" font-family="sans-serif" font-size="15" lengthAdjust="spacing" textLength="129.9756" x="495.5" y="627.9902">&#1044;&#1086;&#1089;&#1090;&#1091;&#1087; &#1082; &#1076;&#1072;&#1085;&#1085;&#1099;&#1084;</text><text fill="#000000" font-family="sans-serif" font-size="15" lengthAdjust="spacing" textLength="186.1523" x="495.5" y="645.6563">Spring Data &#183; &#1090;&#1088;&#1072;&#1085;&#1079;&#1072;&#1082;&#1094;&#1080;&#1080;</text></g><g class="link" data-entity-1="api" data-entity-2="identity" data-uid="lnk12" id="link_api_identity"><polygon fill="#52677F" points="464.6333,347.3456,474.453,346.5876,469.0325,344.9693,470.6509,339.5489,464.6333,347.3456" style="stroke:#52677F;stroke-width:1;"/><path d="M697.3764,221.6257 C631.7303,257.0855 535.562,309.0324 469.9124,344.4941" fill="none" style="stroke:#52677F;stroke-width:1;"/></g><g class="link" data-entity-1="api" data-entity-2="wardrobe" data-uid="lnk13" id="link_api_wardrobe"><polygon fill="#52677F" points="886.5492,441.4157,879.1936,434.8662,881.7864,439.8939,876.7587,442.4866,886.5492,441.4157" style="stroke:#52677F;stroke-width:1;"/><path d="M776.9787,221.6655 C790.6705,253.7064 810.181,302.9433 821.5,347.4883 C825.424,362.931 821.2459,406.2928 831.5,418.4883 C836.124,423.9878 853.1085,430.7305 880.8338,439.5895" fill="none" style="stroke:#52677F;stroke-width:1;"/></g><g class="link" data-entity-1="api" data-entity-2="outfits" data-uid="lnk14" id="link_api_outfits"><polygon fill="#52677F" points="807.3378,441.3345,816.9076,439.0063,811.2974,438.2813,812.0224,432.6711,807.3378,441.3345" style="stroke:#52677F;stroke-width:1;"/><path d="M785.152,221.5106 C788.583,227.3564 791.8459,233.4815 794.5,239.4883 C811.2783,277.4612 804.5924,290.7427 819.5,329.4883 C822.7118,337.836 826.445,338.7833 828.5,347.4883 C835.75,378.1997 845.1361,391.6742 828.5,418.4883 C822.9897,427.3697 820.4055,431.258 812.0893,437.6706" fill="none" style="stroke:#52677F;stroke-width:1;"/></g><g class="link" data-entity-1="api" data-entity-2="ratings" data-uid="lnk15" id="link_api_ratings"><polygon fill="#52677F" points="694.8558,347.428,702.0022,340.651,696.7738,342.8105,694.6143,337.5821,694.8558,347.428" style="stroke:#52677F;stroke-width:1;"/><path d="M747.0188,221.8504 C732.2753,257.3441 711.8556,306.5026 697.1574,341.887" fill="none" style="stroke:#52677F;stroke-width:1;"/></g><g class="link" data-entity-1="api" data-entity-2="recommendations" data-uid="lnk16" id="link_api_recommendations"><polygon fill="#52677F" points="911.8888,258.4735,905.4776,250.9972,907.373,256.327,902.0431,258.2224,911.8888,258.4735" style="stroke:#52677F;stroke-width:1;"/><path d="M834.21,221.55 C859.1218,233.3915 881.5658,244.0599 906.4698,255.8977" fill="none" style="stroke:#52677F;stroke-width:1;"/></g><g class="link" data-entity-1="identity" data-entity-2="persistence" data-uid="lnk17" id="link_identity_persistence"><polygon fill="#52677F" points="560.6056,595.4547,558.1197,585.9247,557.4874,591.5461,551.866,590.9138,560.6056,595.4547" style="stroke:#52677F;stroke-width:1;"/><path d="M426.113,418.6136 C454.3204,456.5988 501.1667,519.2507 542.5,572.4883 C548.3015,579.9607 550.8508,583.2274 556.8638,590.7644" fill="none" style="stroke:#52677F;stroke-width:1;"/></g><g class="link" data-entity-1="wardrobe" data-entity-2="persistence" data-uid="lnk18" id="link_wardrobe_persistence"><polygon fill="#52677F" points="684.2633,595.4134,694.0868,596.1194,688.9662,593.7155,691.3701,588.5948,684.2633,595.4134" style="stroke:#52677F;stroke-width:1;"/><path d="M913.7053,512.5745 C845.0372,537.3668 758.5678,568.5861 689.9068,593.3759" fill="none" style="stroke:#52677F;stroke-width:1;"/></g><g class="link" data-entity-1="outfits" data-entity-2="persistence" data-uid="lnk19" id="link_outfits_persistence"><polygon fill="#52677F" points="616.8157,595.2787,625.6043,590.8334,619.9764,591.4044,619.4054,585.7764,616.8157,595.2787" style="stroke:#52677F;stroke-width:1;"/><path d="M684.0519,512.8602 C663.8883,537.5768 640.7423,565.9493 620.6085,590.6295" fill="none" style="stroke:#52677F;stroke-width:1;"/></g><g class="link" data-entity-1="ratings" data-entity-2="persistence" data-uid="lnk20" id="link_ratings_persistence"><polygon fill="#52677F" points="568.9728,595.4839,568.5558,585.6438,566.7505,591.0049,561.3895,589.1995,568.9728,595.4839" style="stroke:#52677F;stroke-width:1;"/><path d="M571.7938,418.6957 C565.5485,423.8315 559.9949,429.7252 555.5,436.4883 C523.4324,484.7378 545.8402,548.8605 566.306,590.1091" fill="none" style="stroke:#52677F;stroke-width:1;"/></g><g class="link" data-entity-1="recommendations" data-entity-2="wardrobe" data-uid="lnk21" id="link_recommendations_wardrobe"><polygon fill="#52677F" points="1010.6778,441.2872,1014.7507,432.32,1010.7183,436.2874,1006.7509,432.2551,1010.6778,441.2872" style="stroke:#52677F;stroke-width:1;"/><path d="M998.6705,329.5881 C1000.6032,335.4765 1002.324,341.5947 1003.5,347.4883 C1009.7493,378.8075 1010.9378,409.233 1010.7265,435.2874" fill="none" style="stroke:#52677F;stroke-width:1;"/><text fill="#000000" font-family="sans-serif" font-size="15" lengthAdjust="spacing" textLength="95.0684" x="1020.5" y="388.9902">&#1074;&#1077;&#1097;&#1080; &#1080; &#1092;&#1086;&#1090;&#1086;</text></g><g class="link" data-entity-1="recommendations" data-entity-2="outfits" data-uid="lnk22" id="link_recommendations_outfits"><polygon fill="#52677F" points="809.1545,441.3663,818.874,439.7753,813.3355,438.6242,814.4866,433.0857,809.1545,441.3663" style="stroke:#52677F;stroke-width:1;"/><path d="M875.2681,329.4973 C867.6129,334.6913 860.5476,340.6516 854.5,347.4883 C832.8569,371.9554 856.4812,393.4513 835.5,418.4883 C828.0812,427.3412 824.0133,431.6211 814.1717,438.0758" fill="none" style="stroke:#52677F;stroke-width:1;"/><text fill="#000000" font-family="sans-serif" font-size="15" lengthAdjust="spacing" textLength="125.3613" x="864.5" y="388.9902">&#1089;&#1086;&#1093;&#1088;&#1072;&#1085;&#1080;&#1090;&#1100; &#1086;&#1073;&#1088;&#1072;&#1079;</text></g><g class="link" data-entity-1="persistence" data-entity-2="db" data-uid="lnk24" id="link_persistence_db"><polygon fill="#52677F" points="588.5,744.3364,592.5,735.3364,588.5,739.3364,584.5,735.3364,588.5,744.3364" style="stroke:#52677F;stroke-width:1;"/><path d="M588.5,666.8144 C588.5,689.4946 588.5,713.3924 588.5,738.3364" fill="none" style="stroke:#52677F;stroke-width:1;"/><text fill="#000000" font-family="sans-serif" font-size="15" lengthAdjust="spacing" textLength="27.7295" x="598.5" y="713.9902">SQL</text></g><g class="link" data-entity-1="client" data-entity-2="api" data-uid="lnk27" id="link_client_api"><polygon fill="#52677F" points="643.885,185.9883,634.885,181.9883,638.885,185.9883,634.885,189.9883,643.885,185.9883" style="stroke:#52677F;stroke-width:1;"/><path d="M241.2625,185.9883 C355.939,185.9883 523.2589,185.9883 637.885,185.9883" fill="none" style="stroke:#52677F;stroke-width:1;"/><text fill="#000000" font-family="sans-serif" font-size="15" lengthAdjust="spacing" textLength="80.7056" x="402.5" y="170.4902">&#1074;&#1093;&#1086;&#1076; / JWT</text></g><g class="link" data-entity-1="wardrobe" data-entity-2="s3" data-uid="lnk28" id="link_wardrobe_s3"><polygon fill="#52677F" points="1207.6274,590.3591,1201.7723,582.4397,1203.2783,587.8924,1197.8255,589.3984,1207.6274,590.3591" style="stroke:#52677F;stroke-width:1;"/><path d="M1070.6487,512.6696 C1111.4334,535.8012 1159.9352,563.3097 1202.4084,587.399" fill="none" style="stroke:#52677F;stroke-width:1;"/><text fill="#000000" font-family="sans-serif" font-size="15" lengthAdjust="spacing" textLength="81.2842" x="1184.5" y="559.9902">HTTPS / S3</text></g><g class="link" data-entity-1="recommendations" data-entity-2="openai" data-uid="lnk29" id="link_recommendations_openai"><polygon fill="#52677F" points="1222.2141,436.4649,1219.6928,426.9443,1219.0814,432.568,1213.4577,431.9566,1222.2141,436.4649" style="stroke:#52677F;stroke-width:1;"/><path d="M1096.7102,329.5746 C1108.1556,334.8619 1119.3063,340.8189 1129.5,347.4883 C1166.0538,371.4039 1195.8332,403.6485 1218.4548,431.7886" fill="none" style="stroke:#52677F;stroke-width:1;"/><text fill="#000000" font-family="sans-serif" font-size="15" lengthAdjust="spacing" textLength="46.3623" x="1216.5" y="388.9902">HTTPS</text></g><!--SRC=[XLN1Rjj64BtpAwRAMOWRHuxXGm7Pab2rQUo62e80lgp4DSEQuX9B6gvJ1B2LnadWe4NRd7fecZ-G7BbMvKW6-WNBF-hCa1AeYaO54IHdP-UzcJSx_2pKmkqAyCMHEeWXwifO1CAAzhqW55fqeIqw-wvM1u6pfNobuLQ3VpaFH-w90pzkg21-8BeIR154jjJUNh6FxJsJy7abjnWz5Ouwz08NzeGVoTnAHtL35KZS51_v4hJi83lNpxk4o4-uycQ7gjRgCEDUkRDsxrwUUw0S6SaGLbToHYs2VJBUNLd0SHoYk5v4RtEfI2kDjSPMeQlIZjIPszhTzKgrPbcn5oDxyy5S9CVct8oI4p3NPcg6Pc2cQEe3lroOlymmEOD_Bi5yGii4holqxbdMF3wK7jdrXt0RxDQJ-qsxXK_LsZVD1xk1-PsSCSWawS73EYvLTvhaU2XSL-eIY0WwlaSnIEHAhM5Pyu92gQOw-rB35W55iWG_MC3bWzBNAlQzW2A5cagqgLJC78dpo4mm5ynXcfnYUYV9IReL84TvcSrkK6jjSv1pqsVUGzF72AFavpHqyXfj0pCs8oOkGk-_GSrxAa_orbpY7QCaFSmT8m7z1_XCzckqdr0XaLalUOjL-ZLvISG9vQl7BReHUTv8m0DycX8iMy_d13m7GRtuQ8d5RuXmJEBnXW6X9pyYNW_VFfAs-3Oo8q96dpSf37AWNNqp9jRuD29-w3VErhC837qejADLMov1_s467EGoESFm7z8ayVsSCy4xXKYEip9VeMN89Rf8Jjb6BVYHLUmp44w8FI-Ebd3UPULxOQwvk2mr5dNCQVt938unwckspYHCKvfoScp1zrV9BnZdLPeeOseHOqyjOLQRvVm9OTtEKgNJip7CnEOyCgsea6CyJ4G6ARsWxg22q9M2IOJeoi11K1NyJw9ZeC9WGXD4_hGRPDrV4x7WR7fS-mcI8XbFIMG62QMEl2YMGKV2hVfwerB7WqP8sCDGBd-ns4epuuB8CsDUa9ajNx2vhI2l6Gexv3ZnuWojS353BLpBq8lN5baif0KRm0AzIS_dhBzlt3VZi85TWwulirgFw13JuCaQ7_S_nmjtYhQ8S5Rjg2XsjRI_lOyjysuktqL1HyxR68_xpMrihvQnfwwIdwXhML-dFPSL5iGcthYu0OXkFSUPxQi31qfFHE38xs6x_HqEMx1ZXLzaYO3lYKSsk5AEHNE38QFLEMGMT3kKGRL9CvK7ouHf8sdpzyAN9JtMw2iy7FftwhN6ffLz0yhQSv_6I9cQYDJ9vk9j6elMGeCW_0PysMhjs3J0Lwr2mLAGpC_w5m00]--></g></svg>