<svg xmlns="http://www.w3.org/2000/svg" xmlns:xlink="http://www.w3.org/1999/xlink" contentStyleType="text/css" data-diagram-type="CLASS" height="637px" preserveAspectRatio="none" style="width:1559px;height:637px;background:#FFFFFF;" version="1.1" viewBox="0 0 1559 637" width="1559px" zoomAndPan="magnify"><defs/><g><!--class user--><g class="entity" data-entity="user" data-source-line="17" data-uid="ent0002" id="entity_user"><rect fill="#FFF5DF" height="174.3945" rx="2.5" ry="2.5" style="stroke:#6485AD;stroke-width:0.5;" width="208.4785" x="328.5" y="12"/><text fill="#000000" font-family="sans-serif" font-size="14" lengthAdjust="spacing" textLength="61.708" x="401.8853" y="30.5352">app_user</text><line style="stroke:#6485AD;stroke-width:0.5;" x1="329.5" x2="535.9785" y1="38.4883" y2="38.4883"/><text fill="#000000" font-family="sans-serif" font-size="14" lengthAdjust="spacing" textLength="48.8359" x="334.5" y="56.0234">id &#171;PK&#187;</text><line style="stroke:#6485AD;stroke-width:1;" x1="329.5" x2="535.9785" y1="62.9766" y2="62.9766"/><text fill="#000000" font-family="sans-serif" font-size="14" lengthAdjust="spacing" textLength="34.1113" x="334.5" y="80.5117">login</text><text fill="#000000" font-family="sans-serif" font-size="14" lengthAdjust="spacing" textLength="103.9883" x="334.5" y="97">password_hash</text><text fill="#000000" font-family="sans-serif" font-size="14" lengthAdjust="spacing" textLength="196.4785" x="334.5" y="113.4883">role: USER | STYLIST | ADMIN</text><text fill="#000000" font-family="sans-serif" font-size="14" lengthAdjust="spacing" textLength="176.3809" x="334.5" y="129.9766">status: ACTIVE | BLOCKED</text><text fill="#000000" font-family="sans-serif" font-size="14" lengthAdjust="spacing" textLength="49.2461" x="334.5" y="146.4648">version</text><text fill="#000000" font-family="sans-serif" font-size="14" lengthAdjust="spacing" textLength="70.2461" x="334.5" y="162.9531">created_at</text><text fill="#000000" font-family="sans-serif" font-size="14" lengthAdjust="spacing" textLength="80.3018" x="334.5" y="179.4414">modified_at</text></g><!--class user_history--><g class="entity" data-entity="user_history" data-source-line="28" data-uid="ent0003" id="entity_user_history"><rect fill="#FFF5DF" height="157.9063" rx="2.5" ry="2.5" style="stroke:#6485AD;stroke-width:0.5;" width="208.4785" x="421.5" y="258.5"/><text fill="#000000" font-family="sans-serif" font-size="14" lengthAdjust="spacing" textLength="115.459" x="468.0098" y="277.0352">app_user_history</text><line style="stroke:#6485AD;stroke-width:0.5;" x1="422.5" x2="628.9785" y1="284.9883" y2="284.9883"/><text fill="#000000" font-family="sans-serif" font-size="14" lengthAdjust="spacing" textLength="110.6943" x="427.5" y="302.5234">user_id &#171;PK, FK&#187;</text><text fill="#000000" font-family="sans-serif" font-size="14" lengthAdjust="spacing" textLength="85.2236" x="427.5" y="319.0117">version &#171;PK&#187;</text><line style="stroke:#6485AD;stroke-width:1;" x1="422.5" x2="628.9785" y1="325.9648" y2="325.9648"/><text fill="#000000" font-family="sans-serif" font-size="14" lengthAdjust="spacing" textLength="34.1113" x="427.5" y="343.5">login</text><text fill="#000000" font-family="sans-serif" font-size="14" lengthAdjust="spacing" textLength="196.4785" x="427.5" y="359.9883">role: USER | STYLIST | ADMIN</text><text fill="#000000" font-family="sans-serif" font-size="14" lengthAdjust="spacing" textLength="176.3809" x="427.5" y="376.4766">status: ACTIVE | BLOCKED</text><text fill="#000000" font-family="sans-serif" font-size="14" lengthAdjust="spacing" textLength="80.3018" x="427.5" y="392.9648">modified_at</text><text fill="#000000" font-family="sans-serif" font-size="14" lengthAdjust="spacing" textLength="77.1914" x="427.5" y="409.4531">archived_at</text></g><!--class access--><g class="entity" data-entity="access" data-source-line="38" data-uid="ent0004" id="entity_access"><rect fill="#FFF5DF" height="67.4648" rx="2.5" ry="2.5" style="stroke:#6485AD;stroke-width:0.5;" width="134.9443" x="6" y="304"/><text fill="#000000" font-family="sans-serif" font-size="14" lengthAdjust="spacing" textLength="87.2607" x="29.8418" y="322.5352">access_grant</text><line style="stroke:#6485AD;stroke-width:0.5;" x1="7" x2="139.9443" y1="330.4883" y2="330.4883"/><text fill="#000000" font-family="sans-serif" font-size="14" lengthAdjust="spacing" textLength="122.9443" x="12" y="348.0234">owner_id &#171;PK, FK&#187;</text><text fill="#000000" font-family="sans-serif" font-size="14" lengthAdjust="spacing" textLength="121.4951" x="12" y="364.5117">stylist_id &#171;PK, FK&#187;</text></g><!--class category--><g class="entity" data-entity="category" data-source-line="42" data-uid="ent0005" id="entity_category"><rect fill="#E8F5EF" height="91.9531" rx="2.5" ry="2.5" style="stroke:#6485AD;stroke-width:0.5;" width="229.7744" x="1148.5" y="53"/><text fill="#000000" font-family="sans-serif" font-size="14" lengthAdjust="spacing" textLength="223.7744" x="1151.5" y="71.5352">wardrobe_category &#183; &#1089;&#1087;&#1088;&#1072;&#1074;&#1086;&#1095;&#1085;&#1080;&#1082;</text><line style="stroke:#6485AD;stroke-width:0.5;" x1="1149.5" x2="1377.2744" y1="79.4883" y2="79.4883"/><text fill="#000000" font-family="sans-serif" font-size="14" lengthAdjust="spacing" textLength="48.8359" x="1154.5" y="97.0234">id &#171;PK&#187;</text><line style="stroke:#6485AD;stroke-width:1;" x1="1149.5" x2="1377.2744" y1="103.9766" y2="103.9766"/><text fill="#000000" font-family="sans-serif" font-size="14" lengthAdjust="spacing" textLength="70.3213" x="1154.5" y="121.5117">code &#171;UK&#187;</text><text fill="#000000" font-family="sans-serif" font-size="14" lengthAdjust="spacing" textLength="37.29" x="1154.5" y="138">name</text></g><!--class wardrobe_item--><g class="entity" data-entity="wardrobe_item" data-source-line="48" data-uid="ent0006" id="entity_wardrobe_item"><rect fill="#F0F6FC" height="190.8828" rx="2.5" ry="2.5" style="stroke:#6485AD;stroke-width:0.5;" width="125.9141" x="1102.5" y="242"/><text fill="#000000" font-family="sans-serif" font-size="14" lengthAdjust="spacing" textLength="101.1514" x="1114.8813" y="260.5352">wardrobe_item</text><line style="stroke:#6485AD;stroke-width:0.5;" x1="1103.5" x2="1227.4141" y1="268.4883" y2="268.4883"/><text fill="#000000" font-family="sans-serif" font-size="14" lengthAdjust="spacing" textLength="48.8359" x="1108.5" y="286.0234">id &#171;PK&#187;</text><line style="stroke:#6485AD;stroke-width:1;" x1="1103.5" x2="1227.4141" y1="292.9766" y2="292.9766"/><text fill="#000000" font-family="sans-serif" font-size="14" lengthAdjust="spacing" textLength="97.207" x="1108.5" y="310.5117">owner_id &#171;FK&#187;</text><text fill="#000000" font-family="sans-serif" font-size="14" lengthAdjust="spacing" textLength="37.29" x="1108.5" y="327">name</text><text fill="#000000" font-family="sans-serif" font-size="14" lengthAdjust="spacing" textLength="113.9141" x="1108.5" y="343.4883">category_id &#171;FK&#187;</text><text fill="#000000" font-family="sans-serif" font-size="14" lengthAdjust="spacing" textLength="34.1455" x="1108.5" y="359.9766">color</text><text fill="#000000" font-family="sans-serif" font-size="14" lengthAdjust="spacing" textLength="55.3916" x="1108.5" y="376.4648">material</text><text fill="#000000" font-family="sans-serif" font-size="14" lengthAdjust="spacing" textLength="49.2461" x="1108.5" y="392.9531">version</text><text fill="#000000" font-family="sans-serif" font-size="14" lengthAdjust="spacing" textLength="70.2461" x="1108.5" y="409.4414">created_at</text><text fill="#000000" font-family="sans-serif" font-size="14" lengthAdjust="spacing" textLength="80.3018" x="1108.5" y="425.9297">modified_at</text></g><!--class item_history--><g class="entity" data-entity="item_history" data-source-line="60" data-uid="ent0007" id="entity_item_history"><rect fill="#F0F6FC" height="174.3945" rx="2.5" ry="2.5" style="stroke:#6485AD;stroke-width:0.5;" width="168.9873" x="1247" y="250.5"/><text fill="#000000" font-family="sans-serif" font-size="14" lengthAdjust="spacing" textLength="154.9023" x="1254.0425" y="269.0352">wardrobe_item_history</text><line style="stroke:#6485AD;stroke-width:0.5;" x1="1248" x2="1414.9873" y1="276.9883" y2="276.9883"/><text fill="#000000" font-family="sans-serif" font-size="14" lengthAdjust="spacing" textLength="156.9873" x="1253" y="294.5234">wardrobe_item_id &#171;PK&#187;</text><text fill="#000000" font-family="sans-serif" font-size="14" lengthAdjust="spacing" textLength="85.2236" x="1253" y="311.0117">version &#171;PK&#187;</text><line style="stroke:#6485AD;stroke-width:1;" x1="1248" x2="1414.9873" y1="317.9648" y2="317.9648"/><text fill="#000000" font-family="sans-serif" font-size="14" lengthAdjust="spacing" textLength="37.29" x="1253" y="335.5">name</text><text fill="#000000" font-family="sans-serif" font-size="14" lengthAdjust="spacing" textLength="113.9141" x="1253" y="351.9883">category_id &#171;FK&#187;</text><text fill="#000000" font-family="sans-serif" font-size="14" lengthAdjust="spacing" textLength="34.1455" x="1253" y="368.4766">color</text><text fill="#000000" font-family="sans-serif" font-size="14" lengthAdjust="spacing" textLength="55.3916" x="1253" y="384.9648">material</text><text fill="#000000" font-family="sans-serif" font-size="14" lengthAdjust="spacing" textLength="80.3018" x="1253" y="401.4531">modified_at</text><text fill="#000000" font-family="sans-serif" font-size="14" lengthAdjust="spacing" textLength="77.1914" x="1253" y="417.9414">archived_at</text></g><!--class photo--><g class="entity" data-entity="photo" data-source-line="71" data-uid="ent0008" id="entity_photo"><rect fill="#E8F5EF" height="141.418" rx="2.5" ry="2.5" style="stroke:#6485AD;stroke-width:0.5;" width="168.7549" x="1281" y="489"/><text fill="#000000" font-family="sans-serif" font-size="14" lengthAdjust="spacing" textLength="148.0869" x="1291.334" y="507.5352">wardrobe_item_photo</text><line style="stroke:#6485AD;stroke-width:0.5;" x1="1282" x2="1448.7549" y1="515.4883" y2="515.4883"/><text fill="#000000" font-family="sans-serif" font-size="14" lengthAdjust="spacing" textLength="48.8359" x="1287" y="533.0234">id &#171;PK&#187;</text><line style="stroke:#6485AD;stroke-width:1;" x1="1282" x2="1448.7549" y1="539.9766" y2="539.9766"/><text fill="#000000" font-family="sans-serif" font-size="14" lengthAdjust="spacing" textLength="156.7549" x="1287" y="557.5117">wardrobe_item_id &#171;FK&#187;</text><text fill="#000000" font-family="sans-serif" font-size="14" lengthAdjust="spacing" textLength="84.2256" x="1287" y="574">s3_key &#171;UK&#187;</text><text fill="#000000" font-family="sans-serif" font-size="14" lengthAdjust="spacing" textLength="87.582" x="1287" y="590.4883">content_type</text><text fill="#000000" font-family="sans-serif" font-size="14" lengthAdjust="spacing" textLength="70.3076" x="1287" y="606.9766">size_bytes</text><text fill="#000000" font-family="sans-serif" font-size="14" lengthAdjust="spacing" textLength="70.2461" x="1287" y="623.4648">created_at</text></g><!--class outfit--><g class="entity" data-entity="outfit" data-source-line="80" data-uid="ent0009" id="entity_outfit"><rect fill="#F0F6FC" height="141.418" rx="2.5" ry="2.5" style="stroke:#6485AD;stroke-width:0.5;" width="194.54" x="648" y="267"/><text fill="#000000" font-family="sans-serif" font-size="14" lengthAdjust="spacing" textLength="153.2207" x="668.6597" y="285.5352">outfit &#183; &#1085;&#1077;&#1080;&#1079;&#1084;&#1077;&#1085;&#1103;&#1077;&#1084;&#1099;&#1081;</text><line style="stroke:#6485AD;stroke-width:0.5;" x1="649" x2="841.54" y1="293.4883" y2="293.4883"/><text fill="#000000" font-family="sans-serif" font-size="14" lengthAdjust="spacing" textLength="48.8359" x="654" y="311.0234">id &#171;PK&#187;</text><line style="stroke:#6485AD;stroke-width:1;" x1="649" x2="841.54" y1="317.9766" y2="317.9766"/><text fill="#000000" font-family="sans-serif" font-size="14" lengthAdjust="spacing" textLength="97.207" x="654" y="335.5117">owner_id &#171;FK&#187;</text><text fill="#000000" font-family="sans-serif" font-size="14" lengthAdjust="spacing" textLength="100.2764" x="654" y="352">author_id &#171;FK&#187;</text><text fill="#000000" font-family="sans-serif" font-size="14" lengthAdjust="spacing" textLength="182.54" x="654" y="368.4883">source: USER | STYLIST | AI</text><text fill="#000000" font-family="sans-serif" font-size="14" lengthAdjust="spacing" textLength="37.29" x="654" y="384.9766">name</text><text fill="#000000" font-family="sans-serif" font-size="14" lengthAdjust="spacing" textLength="70.2461" x="654" y="401.4648">created_at</text></g><!--class weather--><g class="entity" data-entity="weather" data-source-line="89" data-uid="ent0010" id="entity_weather"><rect fill="#F0F6FC" height="108.4414" rx="2.5" ry="2.5" style="stroke:#6485AD;stroke-width:0.5;" width="219.9922" x="606.5" y="505.5"/><text fill="#000000" font-family="sans-serif" font-size="14" lengthAdjust="spacing" textLength="213.9922" x="609.5" y="524.0352">outfit_weather &#183; &#1085;&#1077;&#1080;&#1079;&#1084;&#1077;&#1085;&#1103;&#1077;&#1084;&#1099;&#1081;</text><line style="stroke:#6485AD;stroke-width:0.5;" x1="607.5" x2="825.4922" y1="531.9883" y2="531.9883"/><text fill="#000000" font-family="sans-serif" font-size="14" lengthAdjust="spacing" textLength="118.2959" x="612.5" y="549.5234">outfit_id &#171;PK, FK&#187;</text><line style="stroke:#6485AD;stroke-width:1;" x1="607.5" x2="825.4922" y1="556.4766" y2="556.4766"/><text fill="#000000" font-family="sans-serif" font-size="14" lengthAdjust="spacing" textLength="97.8018" x="612.5" y="574.0117">temperature_c</text><text fill="#000000" font-family="sans-serif" font-size="14" lengthAdjust="spacing" textLength="177.7207" x="612.5" y="590.5">precipitation_type_id &#171;FK&#187;</text><text fill="#000000" font-family="sans-serif" font-size="14" lengthAdjust="spacing" textLength="115.7119" x="612.5" y="606.9883">wind_speed_mps</text></g><!--class precipitation--><g class="entity" data-entity="precipitation" data-source-line="96" data-uid="ent0011" id="entity_precipitation"><rect fill="#E8F5EF" height="91.9531" rx="2.5" ry="2.5" style="stroke:#6485AD;stroke-width:0.5;" width="222.583" x="861" y="291.5"/><text fill="#000000" font-family="sans-serif" font-size="14" lengthAdjust="spacing" textLength="216.583" x="864" y="310.0352">precipitation_type &#183; &#1089;&#1087;&#1088;&#1072;&#1074;&#1086;&#1095;&#1085;&#1080;&#1082;</text><line style="stroke:#6485AD;stroke-width:0.5;" x1="862" x2="1082.583" y1="317.9883" y2="317.9883"/><text fill="#000000" font-family="sans-serif" font-size="14" lengthAdjust="spacing" textLength="48.8359" x="867" y="335.5234">id &#171;PK&#187;</text><line style="stroke:#6485AD;stroke-width:1;" x1="862" x2="1082.583" y1="342.4766" y2="342.4766"/><text fill="#000000" font-family="sans-serif" font-size="14" lengthAdjust="spacing" textLength="70.3213" x="867" y="360.0117">code &#171;UK&#187;</text><text fill="#000000" font-family="sans-serif" font-size="14" lengthAdjust="spacing" textLength="37.29" x="867" y="376.5">name</text></g><!--class item--><g class="entity" data-entity="item" data-source-line="102" data-uid="ent0012" id="entity_item"><rect fill="#E8F5EF" height="91.9531" rx="2.5" ry="2.5" style="stroke:#6485AD;stroke-width:0.5;" width="196.374" x="910.5" y="513.5"/><text fill="#000000" font-family="sans-serif" font-size="14" lengthAdjust="spacing" textLength="190.374" x="913.5" y="532.0352">outfit_item &#183; &#1085;&#1077;&#1080;&#1079;&#1084;&#1077;&#1085;&#1103;&#1077;&#1084;&#1099;&#1081;</text><line style="stroke:#6485AD;stroke-width:0.5;" x1="911.5" x2="1105.874" y1="539.9883" y2="539.9883"/><text fill="#000000" font-family="sans-serif" font-size="14" lengthAdjust="spacing" textLength="118.2959" x="916.5" y="557.5234">outfit_id &#171;PK, FK&#187;</text><text fill="#000000" font-family="sans-serif" font-size="14" lengthAdjust="spacing" textLength="182.4922" x="916.5" y="574.0117">wardrobe_item_id &#171;PK, FK&#187;</text><line style="stroke:#6485AD;stroke-width:1;" x1="911.5" x2="1105.874" y1="580.9648" y2="580.9648"/><text fill="#000000" font-family="sans-serif" font-size="14" lengthAdjust="spacing" textLength="55.166" x="916.5" y="598.5">position</text></g><!--class rating--><g class="entity" data-entity="rating" data-source-line="108" data-uid="ent0013" id="entity_rating"><rect fill="#F2EDFB" height="141.418" rx="2.5" ry="2.5" style="stroke:#6485AD;stroke-width:0.5;" width="215.1455" x="270" y="489"/><text fill="#000000" font-family="sans-serif" font-size="14" lengthAdjust="spacing" textLength="209.1455" x="273" y="507.5352">outfit_rating &#183; &#1090;&#1077;&#1082;&#1091;&#1097;&#1072;&#1103; &#1086;&#1094;&#1077;&#1085;&#1082;&#1072;</text><line style="stroke:#6485AD;stroke-width:0.5;" x1="271" x2="484.1455" y1="515.4883" y2="515.4883"/><text fill="#000000" font-family="sans-serif" font-size="14" lengthAdjust="spacing" textLength="118.2959" x="276" y="533.0234">outfit_id &#171;PK, FK&#187;</text><text fill="#000000" font-family="sans-serif" font-size="14" lengthAdjust="spacing" textLength="121.4951" x="276" y="549.5117">stylist_id &#171;PK, FK&#187;</text><line style="stroke:#6485AD;stroke-width:1;" x1="271" x2="484.1455" y1="556.4648" y2="556.4648"/><text fill="#000000" font-family="sans-serif" font-size="14" lengthAdjust="spacing" textLength="130.3408" x="276" y="574">vote: LIKE | DISLIKE</text><text fill="#000000" font-family="sans-serif" font-size="14" lengthAdjust="spacing" textLength="49.2461" x="276" y="590.4883">version</text><text fill="#000000" font-family="sans-serif" font-size="14" lengthAdjust="spacing" textLength="70.2461" x="276" y="606.9766">created_at</text><text fill="#000000" font-family="sans-serif" font-size="14" lengthAdjust="spacing" textLength="80.3018" x="276" y="623.4648">modified_at</text></g><!--class rating_history--><g class="entity" data-entity="rating_history" data-source-line="117" data-uid="ent0014" id="entity_rating_history"><rect fill="#F2EDFB" height="141.418" rx="2.5" ry="2.5" style="stroke:#6485AD;stroke-width:0.5;" width="143.8672" x="159.5" y="267"/><text fill="#000000" font-family="sans-serif" font-size="14" lengthAdjust="spacing" textLength="137.8672" x="162.5" y="285.5352">outfit_rating_history</text><line style="stroke:#6485AD;stroke-width:0.5;" x1="160.5" x2="302.3672" y1="293.4883" y2="293.4883"/><text fill="#000000" font-family="sans-serif" font-size="14" lengthAdjust="spacing" textLength="92.791" x="165.5" y="311.0234">outfit_id &#171;PK&#187;</text><text fill="#000000" font-family="sans-serif" font-size="14" lengthAdjust="spacing" textLength="121.4951" x="165.5" y="327.5117">stylist_id &#171;PK, FK&#187;</text><text fill="#000000" font-family="sans-serif" font-size="14" lengthAdjust="spacing" textLength="85.2236" x="165.5" y="344">version &#171;PK&#187;</text><line style="stroke:#6485AD;stroke-width:1;" x1="160.5" x2="302.3672" y1="350.9531" y2="350.9531"/><text fill="#000000" font-family="sans-serif" font-size="14" lengthAdjust="spacing" textLength="130.3408" x="165.5" y="368.4883">vote: LIKE | DISLIKE</text><text fill="#000000" font-family="sans-serif" font-size="14" lengthAdjust="spacing" textLength="80.3018" x="165.5" y="384.9766">modified_at</text><text fill="#000000" font-family="sans-serif" font-size="14" lengthAdjust="spacing" textLength="77.1914" x="165.5" y="401.4648">archived_at</text></g><g class="link" data-entity-1="user" data-entity-2="user_history" data-uid="lnk15" id="link_user_user_history"><line style="stroke:#52677F;stroke-width:1;" x1="464.0795" x2="471.5246" y1="191.2373" y2="188.3096"/><line style="stroke:#52677F;stroke-width:1;" x1="465.1774" x2="472.6224" y1="194.0292" y2="191.1015"/><line style="stroke:#52677F;stroke-width:1;" x1="469.2659" x2="466.3382" y1="193.496" y2="186.0509"/><line style="stroke:#52677F;stroke-width:1;" x1="491.8453" x2="500.3567" y1="250.9157" y2="256.165"/><line style="stroke:#52677F;stroke-width:1;" x1="491.8453" x2="489.1892" y1="250.9157" y2="260.5565"/><line style="stroke:#52677F;stroke-width:1;" x1="491.8453" x2="494.7729" y1="250.9157" y2="258.3608"/><ellipse cx="489.6495" cy="245.3319" fill="none" rx="4" ry="4" style="stroke:#52677F;stroke-width:1;"/><path d="M469.2659,193.496 C478.5623,217.137 479.0748,218.4402 488.1857,241.6094" fill="none" style="stroke:#52677F;stroke-width:1;"/><text fill="#000000" font-family="sans-serif" font-size="14" lengthAdjust="spacing" textLength="49.2119" x="481.5" y="219.5352">user_id</text></g><g class="link" data-entity-1="user" data-entity-2="access" data-uid="lnk16" id="link_user_access"><line style="stroke:#52677F;stroke-width:1;" x1="323.7461" x2="325.1696" y1="112.9853" y2="120.8576"/><line style="stroke:#52677F;stroke-width:1;" x1="320.7939" x2="322.2175" y1="113.5191" y2="121.3914"/><line style="stroke:#52677F;stroke-width:1;" x1="320.5217" x2="328.394" y1="117.6332" y2="116.2097"/><line style="stroke:#52677F;stroke-width:1;" x1="61.9656" x2="69.5843" y1="296.0929" y2="302.5702"/><line style="stroke:#52677F;stroke-width:1;" x1="61.9656" x2="57.8806" y1="296.0929" y2="305.2205"/><line style="stroke:#52677F;stroke-width:1;" x1="61.9656" x2="63.7325" y1="296.0929" y2="303.8954"/><ellipse cx="60.6404" cy="290.2411" fill="none" rx="4" ry="4" style="stroke:#52677F;stroke-width:1;"/><path d="M320.5217,117.6332 C226.2116,134.687 105.3055,163.2926 74.5,204 C53.0528,232.3409 53.1533,257.1786 59.757,286.3399" fill="none" style="stroke:#52677F;stroke-width:1;"/><text fill="#000000" font-family="sans-serif" font-size="14" lengthAdjust="spacing" textLength="61.4619" x="76.5" y="219.5352">owner_id</text></g><g class="link" data-entity-1="user" data-entity-2="access" data-uid="lnk17" id="link_user_access"><line style="stroke:#52677F;stroke-width:1;" x1="323.0837" x2="325.7931" y1="128.3987" y2="135.926"/><line style="stroke:#52677F;stroke-width:1;" x1="320.261" x2="322.9704" y1="129.4148" y2="136.942"/><line style="stroke:#52677F;stroke-width:1;" x1="320.6748" x2="328.202" y1="133.5171" y2="130.8076"/><line style="stroke:#52677F;stroke-width:1;" x1="97.8444" x2="98.441" y1="297.2578" y2="307.24"/><line style="stroke:#52677F;stroke-width:1;" x1="97.8444" x2="88.4285" y1="297.2578" y2="300.6256"/><line style="stroke:#52677F;stroke-width:1;" x1="97.8444" x2="93.4348" y1="297.2578" y2="303.9328"/><ellipse cx="101.1516" cy="292.2516" fill="none" rx="4" ry="4" style="stroke:#52677F;stroke-width:1;"/><path d="M320.6748,133.5171 C273.4503,150.5155 226.1001,172.0391 182.5,204 C145.1433,231.3843 122.874,259.3696 103.3564,288.9141" fill="none" style="stroke:#52677F;stroke-width:1;"/><text fill="#000000" font-family="sans-serif" font-size="14" lengthAdjust="spacing" textLength="60.0127" x="184.5" y="219.5352">stylist_id</text></g><g class="link" data-entity-1="user" data-entity-2="wardrobe_item" data-uid="lnk18" id="link_user_wardrobe_item"><line style="stroke:#52677F;stroke-width:1;" x1="540.612" x2="540.9232" y1="104.7278" y2="96.7339"/><line style="stroke:#52677F;stroke-width:1;" x1="543.6097" x2="543.9209" y1="104.8445" y2="96.8506"/><line style="stroke:#52677F;stroke-width:1;" x1="544.7646" x2="536.7706" y1="100.8865" y2="100.5753"/><line style="stroke:#52677F;stroke-width:1;" x1="1095.8366" x2="1105.835" y1="243.1963" y2="243.3734"/><line style="stroke:#52677F;stroke-width:1;" x1="1095.8366" x2="1098.4662" y1="243.1963" y2="252.8444"/><line style="stroke:#52677F;stroke-width:1;" x1="1095.8366" x2="1102.1506" y1="243.1963" y2="248.1089"/><ellipse cx="1091.1011" cy="239.5119" fill="none" rx="4" ry="4" style="stroke:#52677F;stroke-width:1;"/><path d="M544.7646,100.8865 C682.5215,106.2492 919.9653,131.8282 1093.5,242 C1096.4602,243.8793 1085.1382,234.8725 1087.9441,237.0556" fill="none" style="stroke:#52677F;stroke-width:1;stroke-dasharray:7,7;"/><text fill="#000000" font-family="sans-serif" font-size="14" lengthAdjust="spacing" textLength="61.4619" x="1063.5" y="219.5352">owner_id</text></g><g class="link" data-entity-1="user" data-entity-2="outfit" data-uid="lnk19" id="link_user_outfit"><line style="stroke:#52677F;stroke-width:1;" x1="539.1709" x2="541.5216" y1="127.7617" y2="120.1149"/><line style="stroke:#52677F;stroke-width:1;" x1="542.0384" x2="544.3892" y1="128.6432" y2="120.9964"/><line style="stroke:#52677F;stroke-width:1;" x1="544.1697" x2="536.5228" y1="125.1137" y2="122.7629"/><line style="stroke:#52677F;stroke-width:1;" x1="723.5329" x2="732.0656" y1="259.2409" y2="264.4555"/><line style="stroke:#52677F;stroke-width:1;" x1="723.5329" x2="720.916" y1="259.2409" y2="268.8924"/><line style="stroke:#52677F;stroke-width:1;" x1="723.5329" x2="726.4908" y1="259.2409" y2="266.674"/><ellipse cx="721.3144" cy="253.6661" fill="none" rx="4" ry="4" style="stroke:#52677F;stroke-width:1;"/><path d="M544.1697,125.1137 C594.9802,140.7334 646.2486,163.7816 687.5,204 C705.0302,221.0912 710.9652,227.659 719.8355,249.9495" fill="none" style="stroke:#52677F;stroke-width:1;stroke-dasharray:7,7;"/><text fill="#000000" font-family="sans-serif" font-size="14" lengthAdjust="spacing" textLength="61.4619" x="705.5" y="219.5352">owner_id</text></g><g class="link" data-entity-1="user" data-entity-2="outfit" data-uid="lnk20" id="link_user_outfit"><line style="stroke:#52677F;stroke-width:1;" x1="537.7092" x2="542.223" y1="173.7929" y2="167.1879"/><line style="stroke:#52677F;stroke-width:1;" x1="540.1861" x2="544.6999" y1="175.4855" y2="168.8805"/><line style="stroke:#52677F;stroke-width:1;" x1="543.2686" x2="536.6636" y1="172.7473" y2="168.2335"/><line style="stroke:#52677F;stroke-width:1;" x1="662.9076" x2="672.8886" y1="261.7976" y2="262.414"/><line style="stroke:#52677F;stroke-width:1;" x1="662.9076" x2="665.1105" y1="261.7976" y2="271.552"/><line style="stroke:#52677F;stroke-width:1;" x1="662.9076" x2="668.9996" y1="261.7976" y2="266.983"/><ellipse cx="658.3387" cy="257.9086" fill="none" rx="4" ry="4" style="stroke:#52677F;stroke-width:1;"/><path d="M543.2686,172.7473 C576.4236,195.405 606.2455,216.7866 638.5,242 C648.556,249.8607 645.1894,246.7161 655.2927,255.3159" fill="none" style="stroke:#52677F;stroke-width:1;stroke-dasharray:7,7;"/><text fill="#000000" font-family="sans-serif" font-size="14" lengthAdjust="spacing" textLength="64.5313" x="613.5" y="219.5352">author_id</text></g><g class="link" data-entity-1="user" data-entity-2="rating" data-uid="lnk21" id="link_user_rating"><line style="stroke:#52677F;stroke-width:1;" x1="366.4425" x2="373.4706" y1="187.7012" y2="191.5229"/><line style="stroke:#52677F;stroke-width:1;" x1="365.0093" x2="372.0374" y1="190.3368" y2="194.1585"/><line style="stroke:#52677F;stroke-width:1;" x1="368.0457" x2="371.8674" y1="193.1261" y2="186.098"/><line style="stroke:#52677F;stroke-width:1;" x1="355.2505" x2="362.9627" y1="480.9521" y2="487.3178"/><line style="stroke:#52677F;stroke-width:1;" x1="355.2505" x2="351.2989" y1="480.9521" y2="490.1382"/><line style="stroke:#52677F;stroke-width:1;" x1="355.2505" x2="357.1308" y1="480.9521" y2="488.728"/><ellipse cx="353.8402" cy="475.1202" fill="none" rx="4" ry="4" style="stroke:#52677F;stroke-width:1;"/><path d="M368.0457,193.1261 C358.4012,210.8623 353.7162,222.937 348.5,242 C325.8546,324.7596 337.189,406.2597 352.9001,471.2323" fill="none" style="stroke:#52677F;stroke-width:1;"/><text fill="#000000" font-family="sans-serif" font-size="14" lengthAdjust="spacing" textLength="60.0127" x="350.5" y="343.0352">stylist_id</text></g><g class="link" data-entity-1="user" data-entity-2="rating_history" data-uid="lnk22" id="link_user_rating_history"><line style="stroke:#52677F;stroke-width:1;" x1="322.6758" x2="326.8502" y1="144.0695" y2="150.894"/><line style="stroke:#52677F;stroke-width:1;" x1="320.1166" x2="324.291" y1="145.6349" y2="152.4595"/><line style="stroke:#52677F;stroke-width:1;" x1="321.3507" x2="328.1752" y1="149.569" y2="145.3945"/><line style="stroke:#52677F;stroke-width:1;" x1="238.194" x2="242.5353" y1="258.9322" y2="267.9407"/><line style="stroke:#52677F;stroke-width:1;" x1="238.194" x2="230.7614" y1="258.9322" y2="265.6222"/><line style="stroke:#52677F;stroke-width:1;" x1="238.194" x2="236.6483" y1="258.9322" y2="266.7814"/><ellipse cx="239.3533" cy="253.0452" fill="none" rx="4" ry="4" style="stroke:#52677F;stroke-width:1;"/><path d="M321.3507,149.569 C296.2763,164.9067 278.6439,180.1638 261.5,204 C248.417,222.1902 244.3905,227.4657 240.1261,249.1206" fill="none" style="stroke:#52677F;stroke-width:1;"/><text fill="#000000" font-family="sans-serif" font-size="14" lengthAdjust="spacing" textLength="60.0127" x="263.5" y="219.5352">stylist_id</text></g><g class="link" data-entity-1="category" data-entity-2="wardrobe_item" data-uid="lnk23" id="link_category_wardrobe_item"><line style="stroke:#52677F;stroke-width:1;" x1="1230.751" x2="1237.7106" y1="146.5949" y2="150.54"/><line style="stroke:#52677F;stroke-width:1;" x1="1229.2715" x2="1236.2312" y1="149.2047" y2="153.1498"/><line style="stroke:#52677F;stroke-width:1;" x1="1232.2582" x2="1236.2033" y1="152.0472" y2="145.0876"/><line style="stroke:#52677F;stroke-width:1;" x1="1194.7762" x2="1197.8826" y1="234.3434" y2="243.8486"/><line style="stroke:#52677F;stroke-width:1;" x1="1194.7762" x2="1186.5209" y1="234.3434" y2="239.987"/><line style="stroke:#52677F;stroke-width:1;" x1="1194.7762" x2="1192.2017" y1="234.3434" y2="241.9178"/><ellipse cx="1196.707" cy="228.6625" fill="none" rx="4" ry="4" style="stroke:#52677F;stroke-width:1;"/><path d="M1232.2582,152.0472 C1222.0926,169.9806 1214.9333,184.0937 1206.5,204 C1201.3807,216.0837 1202.3754,211.9851 1197.9942,224.8753" fill="none" style="stroke:#52677F;stroke-width:1;stroke-dasharray:7,7;"/><text fill="#000000" font-family="sans-serif" font-size="14" lengthAdjust="spacing" textLength="78.1689" x="1208.5" y="219.5352">category_id</text></g><g class="link" data-entity-1="category" data-entity-2="item_history" data-uid="lnk24" id="link_category_item_history"><line style="stroke:#52677F;stroke-width:1;" x1="1273.7114" x2="1281.3999" y1="149.9901" y2="147.7794"/><line style="stroke:#52677F;stroke-width:1;" x1="1274.5404" x2="1282.2289" y1="152.8733" y2="150.6626"/><line style="stroke:#52677F;stroke-width:1;" x1="1278.661" x2="1276.4503" y1="152.729" y2="145.0405"/><line style="stroke:#52677F;stroke-width:1;" x1="1304.5467" x2="1312.5237" y1="242.7579" y2="248.7885"/><line style="stroke:#52677F;stroke-width:1;" x1="1304.5467" x2="1300.991" y1="242.7579" y2="252.1044"/><line style="stroke:#52677F;stroke-width:1;" x1="1304.5467" x2="1306.7573" y1="242.7579" y2="250.4464"/><ellipse cx="1302.8887" cy="236.9916" fill="none" rx="4" ry="4" style="stroke:#52677F;stroke-width:1;"/><path d="M1278.661,152.729 C1287.2156,182.4815 1291.5167,197.4404 1301.7834,233.1473" fill="none" style="stroke:#52677F;stroke-width:1;stroke-dasharray:7,7;"/><text fill="#000000" font-family="sans-serif" font-size="14" lengthAdjust="spacing" textLength="78.1689" x="1299.5" y="219.5352">category_id</text></g><g class="link" data-entity-1="wardrobe_item" data-entity-2="photo" data-uid="lnk25" id="link_wardrobe_item_photo"><line style="stroke:#52677F;stroke-width:1;" x1="1229.4331" x2="1234.3204" y1="431.8473" y2="425.5137"/><line style="stroke:#52677F;stroke-width:1;" x1="1231.8082" x2="1236.6955" y1="433.6801" y2="427.3465"/><line style="stroke:#52677F;stroke-width:1;" x1="1235.0435" x2="1228.7099" y1="431.1242" y2="426.2369"/><line style="stroke:#52677F;stroke-width:1;" x1="1355.6217" x2="1363.7783" y1="481.2026" y2="486.9879"/><line style="stroke:#52677F;stroke-width:1;" x1="1355.6217" x2="1352.3516" y1="481.2026" y2="490.6528"/><line style="stroke:#52677F;stroke-width:1;" x1="1355.6217" x2="1358.0649" y1="481.2026" y2="488.8204"/><ellipse cx="1353.7893" cy="475.4892" fill="none" rx="4" ry="4" style="stroke:#52677F;stroke-width:1;"/><path d="M1235.0435,431.1242 C1238.2073,433.5655 1235.1384,430.947 1238.5,433 C1275.9203,455.8536 1303.1518,421.4 1335.5,451 C1346.4356,461.0065 1348.0171,457.4922 1352.5677,471.6803" fill="none" style="stroke:#52677F;stroke-width:1;stroke-dasharray:7,7;"/><text fill="#000000" font-family="sans-serif" font-size="14" lengthAdjust="spacing" textLength="198.6045" x="1351.5" y="466.5352">wardrobe_item_id &#183; CASCADE</text></g><g class="link" data-entity-1="outfit" data-entity-2="weather" data-uid="lnk26" id="link_outfit_weather"><line style="stroke:#52677F;stroke-width:1;" x1="669.5121" x2="675.9754" y1="409.0862" y2="413.8006"/><line style="stroke:#52677F;stroke-width:1;" x1="667.7442" x2="674.2075" y1="411.5099" y2="416.2244"/><line style="stroke:#52677F;stroke-width:1;" x1="670.3866" x2="675.101" y1="414.6751" y2="408.2118"/><line style="stroke:#52677F;stroke-width:1;" x1="663.0357" x2="656.3308" y1="499.8104" y2="504.1744"/><line style="stroke:#52677F;stroke-width:1;" x1="661.3992" x2="654.6943" y1="497.2961" y2="501.6601"/><line style="stroke:#52677F;stroke-width:1;" x1="657.5012" x2="661.8653" y1="498.64" y2="505.3448"/><path d="M670.3866,414.6751 C660.7238,427.9223 656.9685,435.9267 651.5,451 C644.7314,469.6569 646.6241,481.9286 657.5012,498.64" fill="none" style="stroke:#52677F;stroke-width:1;"/><text fill="#000000" font-family="sans-serif" font-size="14" lengthAdjust="spacing" textLength="134.4082" x="653.5" y="466.5352">outfit_id &#183; CASCADE</text></g><g class="link" data-entity-1="precipitation" data-entity-2="weather" data-uid="lnk27" id="link_precipitation_weather"><line style="stroke:#52677F;stroke-width:1;" x1="971.8048" x2="979.8043" y1="387.651" y2="387.7447"/><line style="stroke:#52677F;stroke-width:1;" x1="971.7697" x2="979.7691" y1="390.6508" y2="390.7445"/><line style="stroke:#52677F;stroke-width:1;" x1="975.7577" x2="975.8514" y1="391.6976" y2="383.6981"/><line style="stroke:#52677F;stroke-width:1;" x1="833.993" x2="828.6116" y1="514.2122" y2="522.6408"/><line style="stroke:#52677F;stroke-width:1;" x1="833.993" x2="824.3947" y1="514.2122" y2="511.4061"/><line style="stroke:#52677F;stroke-width:1;" x1="833.993" x2="826.5032" y1="514.2122" y2="517.0235"/><ellipse cx="839.6103" cy="512.1038" fill="none" rx="4" ry="4" style="stroke:#52677F;stroke-width:1;"/><path d="M975.7577,391.6976 C975.4291,419.7582 970.4293,446.9339 950.5,471 C935.7025,488.8691 923.2484,480.9204 901.5,489 C877.2177,498.021 868.0191,501.4408 843.3552,510.6982" fill="none" style="stroke:#52677F;stroke-width:1;stroke-dasharray:7,7;"/><text fill="#000000" font-family="sans-serif" font-size="14" lengthAdjust="spacing" textLength="141.9756" x="963.5" y="466.5352">precipitation_type_id</text></g><g class="link" data-entity-1="outfit" data-entity-2="item" data-uid="lnk28" id="link_outfit_item"><line style="stroke:#52677F;stroke-width:1;" x1="765.4741" x2="772.8037" y1="413.3736" y2="410.1679"/><line style="stroke:#52677F;stroke-width:1;" x1="766.6762" x2="774.0058" y1="416.1222" y2="412.9165"/><line style="stroke:#52677F;stroke-width:1;" x1="770.7417" x2="767.5361" y1="415.4356" y2="408.1059"/><line style="stroke:#52677F;stroke-width:1;" x1="902.874" x2="912.5628" y1="516.0382" y2="513.5631"/><line style="stroke:#52677F;stroke-width:1;" x1="902.874" x2="907.9629" y1="516.0382" y2="524.6465"/><line style="stroke:#52677F;stroke-width:1;" x1="902.874" x2="910.2629" y1="516.0382" y2="519.1048"/><line style="stroke:#52677F;stroke-width:1;" x1="902.5601" x2="899.4934" y1="511.5771" y2="518.966"/><path d="M770.7417,415.4356 C780.4833,437.7093 790.6656,453.7174 808.5,471 C816.9202,479.1597 856.5457,496.8105 902.874,516.0382" fill="none" style="stroke:#52677F;stroke-width:1;"/><text fill="#000000" font-family="sans-serif" font-size="14" lengthAdjust="spacing" textLength="134.4082" x="810.5" y="466.5352">outfit_id &#183; CASCADE</text></g><g class="link" data-entity-1="wardrobe_item" data-entity-2="item" data-uid="lnk29" id="link_wardrobe_item_item"><line style="stroke:#52677F;stroke-width:1;" x1="1133.9934" x2="1141.3349" y1="435.426" y2="438.6046"/><line style="stroke:#52677F;stroke-width:1;" x1="1132.8015" x2="1140.1429" y1="438.1791" y2="441.3576"/><line style="stroke:#52677F;stroke-width:1;" x1="1136.0749" x2="1139.2534" y1="440.686" y2="433.3446"/><line style="stroke:#52677F;stroke-width:1;" x1="1083.6694" x2="1081.2794" y1="508.2913" y2="518.0015"/><line style="stroke:#52677F;stroke-width:1;" x1="1083.6694" x2="1073.6784" y1="508.2913" y2="508.7157"/><line style="stroke:#52677F;stroke-width:1;" x1="1083.6694" x2="1077.4789" y1="508.2913" y2="513.3586"/><ellipse cx="1088.3122" cy="504.4908" fill="none" rx="4" ry="4" style="stroke:#52677F;stroke-width:1;"/><path d="M1136.0749,440.686 C1130.3359,453.9414 1126.6528,459.5764 1118.5,471 C1107.3013,486.6914 1106.4675,489.6294 1091.4075,501.9571" fill="none" style="stroke:#52677F;stroke-width:1;"/><text fill="#000000" font-family="sans-serif" font-size="14" lengthAdjust="spacing" textLength="198.5566" x="1131.5" y="466.5352">wardrobe_item_id &#183; RESTRICT</text></g><g class="link" data-entity-1="outfit" data-entity-2="rating" data-uid="lnk30" id="link_outfit_rating"><line style="stroke:#52677F;stroke-width:1;" x1="672.7357" x2="677.6721" y1="407.3409" y2="413.6362"/><line style="stroke:#52677F;stroke-width:1;" x1="670.3749" x2="675.3113" y1="409.192" y2="415.4874"/><line style="stroke:#52677F;stroke-width:1;" x1="672.0562" x2="678.3516" y1="412.9568" y2="408.0203"/><line style="stroke:#52677F;stroke-width:1;" x1="453.8558" x2="451.3792" y1="483.7215" y2="493.4099"/><line style="stroke:#52677F;stroke-width:1;" x1="453.8558" x2="443.8614" y1="483.7215" y2="484.0567"/><line style="stroke:#52677F;stroke-width:1;" x1="453.8558" x2="447.6203" y1="483.7215" y2="488.7333"/><ellipse cx="458.5324" cy="479.9626" fill="none" rx="4" ry="4" style="stroke:#52677F;stroke-width:1;"/><path d="M672.0562,412.9568 C659.6498,422.685 652.4673,426.5944 638.5,433 C585.0807,457.499 561.3104,427.3723 507.5,451 C486.3159,460.3018 479.8563,462.8231 461.6502,477.4566" fill="none" style="stroke:#52677F;stroke-width:1;"/><text fill="#000000" font-family="sans-serif" font-size="14" lengthAdjust="spacing" textLength="134.4082" x="509.5" y="466.5352">outfit_id &#183; CASCADE</text></g><!--SRC=[fPLVQzim4C3VyocqzdKjNTT_X598anX2kp_KwM1FHh6LMDInZAGqPCrWVs1ZxA5VfGn6jz9ki4_WVAET52UHQYTjjpmuyjrPzxlJtUbHmd6dYr641wmdaUWIYMDSaYn1ag4Mav9rKK0vyILbSKcSq3Z177TH2_id7SvwSL1b4UDesT4_mo8WRToBfCDY-Hnt2N9nB5p2QRlOngLl27goOIX5Y0FMft47jN4aYA69Q4pa8268SHaoGr7XdFKpeCtrhUrj4oXc0H4aGHjhXf3Z-4G9TqoX7s4XzdCHhZbRJZLdndX0U6QojR6pMQdTDgb8oMch9qd3Px6ESwqKqe0Wo7R80Z5-yIdt8r8gaLXIEK1BE4cydY1y2M61r4BdUBFceBCIGZH0kxil3_RsOBso0e-8TMWC_maux0EJ5s8HmZjd4IcZOxT-X8R8RRu-RBXDM5LgpnhFGIqabZrHHfLgi_6g3ehzmnVLWteDLAU42tNe2FcSO4a23qjuwRA0jkduxMsErWkfa8mFfjGJWKMl5La8Zv4p3YFpDoUkVu_314O8Sp-afpbytoT2U1qe1wdHnm8BclNZ0ceX1n54U4i-sxcFUS1PYtW-fB2Z4l7d4etUfxz7xzABz5lwQ_GvlKb_f5VQxTHekRxZRDRddBKFbGoYux4eXkugSaWbwUfDBKdnZaPiZh4hcW9PEbzLkyeiA3d5qKEBnGAoAiOKQ5BRrEGkBfS7Oj-dDco496IIQLQzMdnG1VIJiddgdP31x11XCaXmwAcnfjGm9RpMG19XPtH61UEwJQKg9YYVxr10b-ar_D-Cpk5vFVgQ_jIGcTaz3nttO23P8i5wt2_il8QHxlc4NXzK8KolkqWdThhLnf_UxZLD3PbC28Tkvz1JQk31vKGJ2lqFrQ3pP_731H9u8Y50rqs4WPV_Rc5dMkR_qPwJq5GhtfKIRMIwcfENmYQnivOmGVKLdYE1LAexLiN-0RnVZJwElgGNetC42VYaeDAhz4BZP9RBpdgzvkml0YeUYXdAAPDGJuUD0pMcQmrNhHuwGInsQuBOeWMm2q6BXyiSyaL3fAHlxk5mPOMTsVTXUN8BMYRPlLEUDcUnTiOzqQ-kWjwUzFbDj54s4kxIJcU1HP3LG161eJU2DEocbziSMcDevsojYy4sjRV9xCV3kPnl3QZpQiMjLchrKXQg8XyEf_EdRDI9OMpt_oI2wJU5KyZoC8vXtlQtWz39p3ueYk6exZQF6jMcwS8yda8dVm40]--></g></svg>